<?xml version="1.0" encoding="UTF-8"?>
<svg xmlns="http://www.w3.org/2000/svg" xmlns:xlink="http://www.w3.org/1999/xlink" viewBox="0 0 48 48" width="48px" height="48px">
<g id="surface2130373">
<path style=" stroke:none;fill-rule:nonzero;fill:rgb(100%,100%,100%);fill-opacity:1;" d="M 24 2 C 11.871094 2 2 11.871094 2 24 C 2 36.128906 11.871094 46 24 46 C 36.128906 46 46 36.128906 46 24 C 46 11.871094 36.128906 2 24 2 Z M 24 6 C 33.925781 6 42 14.074219 42 24 C 42 33.925781 33.925781 42 24 42 C 14.074219 42 6 33.925781 6 24 C 6 14.074219 14.074219 6 24 6 Z M 14 14 L 14 18 L 22 18 L 22 20.097656 C 17.585938 20.316406 12 21.261719 12 24 C 12 26.738281 17.585938 27.683594 22 27.902344 L 22 36 L 26 36 L 26 27.902344 C 30.414062 27.683594 36 26.738281 36 24 C 36 21.261719 30.414062 20.316406 26 20.097656 L 26 18 L 34 18 L 34 14 Z M 22 22.054688 L 22 24 L 26 24 L 26 22.054688 C 30.84375 22.304688 33.761719 23.402344 34.007812 23.957031 C 33.726562 24.667969 30.042969 26 24 26 C 17.957031 26 14.273438 24.671875 13.992188 24.042969 C 14.238281 23.414062 17.15625 22.304688 22 22.054688 Z M 22 22.054688 "/>
</g>
</svg>
